<?xml version="1.0" standalone="no"?>
<!DOCTYPE svg PUBLIC "-//W3C//DTD SVG 20010904//EN"
 "http://www.w3.org/TR/2001/REC-SVG-20010904/DTD/svg10.dtd">
<svg version="1.0" xmlns="http://www.w3.org/2000/svg"
 width="800.000000pt" height="800.000000pt" viewBox="0 0 800.000000 800.000000"
 preserveAspectRatio="xMidYMid meet">
<metadata>
Created by potrace 1.14, written by Peter Selinger 2001-2017
</metadata>
<g transform="translate(0.000000,800.000000) scale(0.100000,-0.100000)"
fill="#000000" stroke="none">
<path d="M0 4000 l0 -4000 1167 0 c1112 0 1166 1 1149 17 -13 13 -20 15 -23 6
-7 -20 -23 -15 -23 7 0 11 -7 20 -15 20 -8 0 -15 7 -15 15 0 8 8 15 18 15 14
0 15 2 2 9 -8 6 -17 8 -21 5 -17 -10 -20 19 -5 41 16 24 15 25 -4 25 -11 0
-20 -5 -20 -11 0 -5 -4 -7 -10 -4 -17 11 -11 25 11 25 18 0 20 4 15 27 -7 25
5 43 29 43 6 0 3 -5 -5 -10 -13 -8 -13 -12 3 -27 17 -17 19 -17 31 0 14 18 36
23 36 8 0 -6 -5 -13 -11 -16 -6 -4 -8 -13 -5 -20 3 -8 0 -16 -7 -19 -7 -3 -1
-3 12 0 22 6 23 4 17 -22 -7 -28 -7 -28 13 -10 11 10 25 15 30 11 16 -9 13
-35 -4 -35 -25 0 -17 -19 11 -26 21 -5 24 -11 19 -31 -4 -16 -2 -22 5 -18 5 3
13 -1 16 -9 6 -15 161 -16 1603 -16 l1596 0 2 27 c1 28 23 45 61 49 19 2 23
-2 21 -19 -1 -12 1 -30 6 -39 7 -17 71 -18 1151 -18 l1144 0 0 4000 0 4000
-4000 0 -4000 0 0 -4000z m4365 2450 c3 -5 -3 -10 -15 -10 -12 0 -18 5 -15 10
3 6 10 10 15 10 5 0 12 -4 15 -10z m-27 -126 c34 -3 62 -10 62 -15 0 -5 23 -9
50 -9 39 0 50 -4 50 -16 0 -10 6 -13 19 -9 13 4 25 -3 42 -25 13 -16 30 -30
37 -30 7 0 22 -9 34 -20 12 -11 30 -20 40 -20 10 0 18 -4 18 -10 0 -5 11 -10
24 -10 14 0 28 -4 31 -10 3 -5 17 -10 30 -10 34 0 42 -42 15 -84 -14 -24 -20
-50 -20 -91 0 -57 -23 -115 -45 -115 -12 0 -51 -48 -49 -61 1 -5 2 -22 3 -39
1 -29 2 -30 51 -30 44 0 126 -17 173 -35 19 -8 21 -2 7 25 -7 13 -6 27 2 44
11 25 38 36 38 16 0 -5 5 -10 11 -10 5 0 7 5 4 10 -4 6 8 10 30 10 22 0 34 -4
30 -10 -8 -13 8 -13 22 1 18 18 80 15 102 -5 10 -9 25 -16 33 -15 28 3 38 -2
38 -19 0 -21 60 -42 122 -42 29 0 38 -3 29 -9 -11 -7 -9 -10 8 -16 11 -3 21
-15 21 -25 0 -10 9 -22 21 -25 11 -4 19 -9 16 -11 -2 -3 8 -18 24 -35 25 -27
28 -37 26 -89 -1 -32 -5 -53 -9 -46 -6 8 -11 7 -18 -4 -9 -13 -14 -7 -11 13 1
9 -3 9 -23 1 -15 -6 -11 -33 7 -45 6 -4 -1 -18 -14 -31 -21 -21 -34 -25 -86
-24 -34 1 -65 5 -69 9 -4 4 -12 7 -18 7 -6 0 3 -9 20 -20 22 -14 34 -31 38
-55 7 -34 37 -62 56 -50 6 3 7 -1 4 -10 -5 -11 0 -18 15 -22 11 -3 21 -10 21
-15 0 -5 9 -6 20 -3 30 9 72 -39 76 -87 2 -21 -2 -40 -8 -44 -6 -4 16 -20 48
-35 65 -32 74 -35 56 -17 -10 10 -7 15 10 24 31 17 27 88 -8 123 -13 13 -24
29 -24 35 0 6 -9 22 -20 36 -25 32 -25 40 1 40 11 0 18 4 15 8 -3 5 32 9 77
11 78 2 83 0 115 -28 17 -16 32 -34 32 -38 0 -5 9 -14 20 -21 11 -7 20 -21 20
-32 0 -22 10 -26 27 -9 8 8 11 1 11 -27 0 -44 -12 -64 -39 -64 -15 0 -18 -6
-15 -38 3 -21 13 -54 23 -73 34 -62 48 -116 33 -134 -9 -11 -9 -15 -1 -15 7 0
11 -10 9 -22 -3 -24 -25 -28 -60 -14 -22 10 -33 -26 -18 -54 15 -28 6 -36 -24
-22 -18 8 -26 8 -28 0 -2 -6 -26 -13 -53 -15 -43 -4 -54 -1 -80 21 -32 29 -69
48 -127 66 -25 7 -35 16 -32 25 4 9 -8 18 -38 26 -24 7 -57 23 -75 36 -17 13
-37 23 -44 23 -9 0 -8 4 1 15 10 12 10 21 0 45 -7 16 -17 27 -23 23 -6 -3 -7
-1 -3 5 4 7 14 12 22 12 8 0 14 4 14 9 0 5 15 13 33 17 l32 7 -48 16 c-27 9
-46 19 -42 22 3 4 -1 12 -10 19 -8 7 -15 21 -15 31 0 14 -7 19 -25 19 -14 0
-25 -5 -25 -10 0 -12 -50 -33 -58 -25 -3 2 6 8 18 13 17 6 20 11 11 16 -7 5
-18 3 -24 -3 -6 -6 -19 -11 -30 -11 -14 0 -17 -5 -12 -20 12 -37 8 -78 -8 -95
-9 -9 -20 -21 -24 -28 -13 -19 -73 -49 -87 -44 -8 3 -28 -12 -47 -36 -40 -51
-46 -56 -129 -109 -36 -22 -81 -57 -101 -77 -20 -20 -46 -43 -57 -51 -41 -31
-92 -81 -92 -90 0 -6 7 -10 15 -10 8 0 15 7 15 15 0 8 7 15 15 15 9 0 18 6 21
13 7 19 60 15 55 -3 -14 -53 -13 -60 3 -54 10 4 16 1 16 -7 0 -11 3 -11 10 1
8 13 10 12 10 -2 0 -43 55 -1 101 78 24 42 64 95 109 146 21 25 34 30 90 34
36 3 71 7 78 9 7 3 12 -5 12 -18 0 -17 2 -19 9 -8 7 11 14 8 36 -15 15 -16 33
-28 40 -26 20 4 29 -17 11 -24 -22 -9 -20 -24 3 -24 11 0 23 -5 26 -11 4 -6
13 -8 20 -5 8 3 19 -2 25 -10 7 -8 20 -14 30 -14 10 0 23 -6 29 -14 10 -12 56
-28 89 -30 7 -1 16 -6 20 -12 4 -6 18 -15 31 -19 13 -4 31 -13 40 -21 9 -7 25
-20 35 -27 27 -20 11 -37 -34 -37 -21 0 -45 -7 -54 -15 -8 -8 -19 -15 -24 -15
-5 0 -9 -15 -10 -34 l-1 -33 115 -7 c95 -6 120 -10 137 -26 11 -11 24 -20 28
-20 4 0 36 -18 71 -40 81 -51 106 -83 103 -135 -3 -49 12 -75 44 -75 26 0 81
-53 81 -77 0 -13 -16 -51 -26 -62 -2 -2 -13 4 -24 14 -24 22 -50 13 -50 -19 0
-19 -11 -29 -57 -51 -106 -50 -173 -44 -152 13 5 15 24 39 42 54 18 15 26 28
20 28 -7 0 -13 7 -13 16 0 9 -5 13 -12 10 -7 -3 -21 -9 -30 -12 -10 -4 -18
-10 -18 -15 0 -5 -6 -9 -13 -9 -8 0 -24 -11 -36 -24 -13 -13 -35 -27 -49 -30
-47 -11 -82 -28 -82 -39 0 -7 4 -7 12 1 7 7 29 12 49 12 29 0 38 -5 42 -21 3
-12 0 -22 -9 -26 -8 -3 -14 -11 -14 -19 0 -8 -16 -22 -35 -31 -19 -9 -32 -20
-29 -25 3 -4 -1 -9 -8 -9 -7 -1 -20 -2 -28 -3 -8 0 -15 -8 -15 -16 0 -9 -10
-15 -25 -16 -14 0 -24 -6 -22 -12 1 -7 -6 -12 -17 -12 -10 0 -24 -7 -31 -15
-7 -8 -20 -14 -29 -13 -9 2 -15 -3 -13 -9 1 -8 -8 -13 -22 -13 -13 0 -34 -11
-47 -25 -13 -13 -28 -25 -32 -25 -5 0 -23 -11 -42 -25 -40 -31 -105 -45 -105
-23 0 8 5 19 11 25 6 6 8 16 4 23 -10 15 -31 -4 -51 -46 -9 -18 -24 -36 -35
-39 -10 -4 -27 -17 -37 -29 -10 -13 -29 -27 -42 -31 -35 -10 -120 -58 -120
-67 0 -5 -7 -8 -15 -8 -8 0 -12 -6 -9 -14 3 -8 -3 -17 -14 -21 -11 -3 -25 -18
-30 -34 -6 -17 -24 -34 -48 -46 -21 -10 -58 -36 -83 -59 -87 -78 -110 -90
-178 -92 -53 -2 -65 1 -74 17 -5 10 -19 19 -29 19 -11 0 -20 4 -20 9 0 5 -18
27 -40 50 -33 34 -39 46 -34 69 4 22 3 24 -6 12 -9 -12 -10 -7 -5 22 6 36 5
37 -34 48 -24 6 -49 23 -64 42 l-25 31 -12 -22 c-6 -13 -9 -25 -6 -28 11 -12
-61 -38 -104 -38 -41 0 -45 2 -53 31 l-9 32 -37 -24 c-20 -13 -41 -28 -48 -34
-17 -14 -20 -13 -52 11 -16 12 -34 18 -40 15 -15 -10 -14 -79 1 -112 12 -26
10 -29 -55 -89 -37 -34 -78 -68 -91 -75 -31 -16 -90 -6 -116 20 -30 30 -61 42
-90 37 -44 -9 -85 33 -55 56 5 4 -2 5 -17 1 -33 -7 -36 6 -8 31 13 11 18 25
14 37 -3 10 -1 18 5 18 6 0 11 9 11 21 0 30 -31 20 -50 -16 -8 -17 -18 -31
-22 -33 -5 -2 -8 -10 -8 -18 0 -22 -16 -17 -57 19 -21 17 -49 42 -63 53 -78
66 -202 177 -245 220 -28 27 -64 61 -81 75 -17 14 -39 38 -49 53 -18 28 -62
61 -215 163 -47 32 -87 60 -90 63 -18 20 -84 62 -119 76 -22 9 -41 20 -41 24
0 5 -21 15 -47 24 -48 17 -81 21 -70 9 9 -8 -43 -43 -64 -43 -9 0 -19 -9 -22
-21 -8 -30 -27 -13 -27 24 0 27 9 38 51 69 27 20 49 40 49 43 -1 3 11 21 27
38 33 38 111 77 156 78 30 1 31 1 7 9 -26 8 -20 10 45 15 66 4 180 32 226 56
41 20 42 22 23 37 -16 13 -17 14 -1 9 11 -4 20 -1 23 8 4 9 19 15 38 16 26 0
28 2 11 8 -38 16 -160 22 -215 11 -99 -20 -130 -23 -130 -11 0 6 7 11 15 11 9
0 18 7 21 15 4 8 12 15 19 15 7 0 15 7 19 15 3 9 0 15 -9 15 -20 0 -19 19 0
27 9 3 22 -2 29 -12 10 -15 15 -15 21 -5 5 9 4 15 -3 18 -16 5 -15 19 2 25 10
4 13 1 9 -9 -7 -20 17 -18 32 3 11 14 15 15 29 4 13 -11 17 -9 27 13 7 14 16
23 20 20 5 -3 9 2 9 10 0 9 7 16 15 16 8 0 15 5 15 10 0 6 12 10 26 10 14 0
23 4 19 10 -3 6 5 10 19 10 18 0 30 8 40 28 14 26 29 32 93 36 11 0 19 4 17 8
-2 4 10 8 28 10 21 2 33 8 33 18 0 23 85 14 173 -17 40 -14 75 -23 79 -20 3 3
-9 26 -27 51 -30 41 -31 47 -19 74 13 29 14 30 83 27 39 -1 85 -8 101 -15 17
-7 44 -19 62 -26 44 -20 46 -18 21 21 -22 34 -122 95 -155 95 -7 0 -21 4 -31
9 -45 23 -112 46 -123 43 -4 0 -15 8 -24 18 -10 11 -24 20 -32 20 -7 0 -13 9
-13 20 0 11 -5 20 -10 20 -14 0 -74 61 -83 83 -7 19 -32 23 -42 7 -10 -16 -25
-12 -25 6 0 14 -3 14 -15 4 -10 -9 -15 -9 -15 -1 0 6 -8 11 -17 12 -15 0 -15
2 2 9 11 5 15 9 8 9 -25 2 -43 -12 -43 -34 0 -13 -4 -27 -10 -30 -5 -3 -10
-14 -10 -23 0 -18 -10 -21 -81 -23 -27 -1 -36 -6 -35 -18 1 -11 -6 -15 -24
-14 -14 1 -19 -1 -12 -3 18 -8 15 -20 -5 -21 -10 -1 -46 -4 -80 -7 -34 -4 -64
-2 -67 3 -3 5 -40 7 -81 5 -74 -4 -75 -4 -104 28 -25 28 -31 30 -45 19 -21
-18 -21 3 0 24 11 11 13 20 7 26 -7 7 -15 5 -26 -5 -22 -22 -24 -21 -25 19 -1
23 5 42 18 55 11 11 20 23 20 27 0 4 14 28 31 53 43 64 74 76 150 60 52 -11
59 -16 59 -36 0 -16 -6 -24 -17 -24 -11 0 -14 -3 -7 -8 6 -4 10 -16 8 -27 -4
-26 12 -35 69 -35 52 0 107 22 107 43 0 17 43 54 57 50 6 -2 14 1 18 6 3 6 16
11 28 11 l22 0 -21 18 c-12 9 -25 27 -29 40 -20 68 44 120 161 131 41 4 74 3
74 -1 0 -4 20 -8 44 -8 40 0 45 3 55 31 6 18 11 33 11 35 0 2 -30 4 -67 4 -38
1 -89 2 -115 2 -28 1 -57 -6 -72 -15 -14 -10 -30 -17 -36 -17 -12 0 -50 -37
-49 -47 4 -24 -4 -33 -30 -33 -18 0 -31 -6 -35 -17 -6 -15 -8 -15 -16 -3 -13
20 -13 33 0 25 6 -3 7 1 4 9 -3 9 -1 16 5 16 22 0 11 40 -13 46 -28 7 -50 44
-42 70 10 31 65 83 94 90 15 4 29 10 32 13 6 7 32 22 92 53 22 12 45 31 50 44
6 13 15 21 20 18 5 -3 20 1 33 10 30 20 89 14 117 -10 16 -15 23 -16 38 -6 11
7 26 12 34 12 8 0 16 6 19 13 8 22 27 -42 21 -73 -7 -32 3 -39 25 -17 10 10
11 3 6 -35 -8 -54 5 -64 22 -18 7 19 18 30 30 30 17 -1 16 -2 -3 -18 -13 -11
-19 -24 -15 -35 5 -14 16 -7 64 38 32 31 70 58 87 61 25 6 30 12 35 48 3 22 4
56 1 74 -4 25 0 34 15 43 14 7 18 16 13 31 -5 16 -3 20 8 16 8 -4 19 2 26 12
6 10 35 23 64 30 29 7 59 19 66 27 7 7 20 13 27 13 8 0 17 5 21 11 9 15 -73
89 -98 89 -10 0 -18 4 -18 10 0 5 -12 9 -27 9 -33 -1 -60 4 -69 14 -4 4 2 7
13 7 29 0 35 11 18 36 -14 21 -12 24 32 53 26 17 54 31 63 31 10 0 23 7 30 15
17 20 60 19 75 -2 7 -9 33 -19 62 -23 45 -5 50 -4 45 12 -4 15 2 18 33 18 20
0 42 6 50 13 9 10 36 13 86 12 53 -2 84 2 113 16 42 18 108 19 294 3z m-1020
-224 c23 -16 49 -36 59 -44 10 -8 29 -24 43 -34 l24 -20 -59 -38 c-102 -66
-99 -65 -121 -33 -10 16 -25 29 -31 29 -7 0 -13 7 -13 16 0 9 -9 18 -21 21
-12 4 -18 11 -15 20 3 8 6 19 6 25 0 6 6 5 15 -2 23 -19 40 1 25 29 -9 19 -8
25 12 41 30 25 28 25 76 -10z m1590 -41 c11 -18 10 -23 -7 -38 -11 -10 -17
-22 -13 -26 4 -5 1 -5 -5 -1 -14 7 -18 68 -6 79 11 11 17 8 31 -14z m350 -323
c3 -12 -1 -17 -10 -14 -7 3 -15 13 -16 22 -3 12 1 17 10 14 7 -3 15 -13 16
-22z m-2673 -900 c19 -8 35 -18 35 -21 0 -16 -49 -54 -80 -63 -56 -16 -110
-15 -110 2 0 8 -5 16 -11 18 -21 7 4 37 49 57 56 24 72 25 117 7z m-195 -455
c0 -10 -7 -21 -15 -25 -16 -6 -19 3 -9 28 8 22 24 20 24 -3z m2 -822 c79 -26
253 -113 369 -185 49 -30 169 -119 266 -197 98 -78 203 -159 233 -179 30 -21
84 -65 120 -98 61 -57 64 -61 46 -75 -37 -28 -120 -37 -234 -25 -102 10 -219
34 -252 51 -8 4 -44 19 -80 34 -71 29 -292 136 -300 145 -3 3 -24 18 -48 33
-65 42 -125 107 -152 162 -13 28 -27 52 -30 55 -11 8 -70 202 -72 237 -4 65
32 76 134 42z m3409 -11 c40 -43 13 -165 -61 -274 -16 -25 -30 -49 -30 -54 0
-22 -88 -119 -134 -148 -88 -55 -279 -153 -367 -188 -138 -55 -209 -72 -344
-85 -111 -10 -129 -10 -179 6 -31 10 -59 22 -62 27 -9 14 33 55 96 95 30 20
93 68 140 107 47 39 105 87 130 106 25 19 47 37 50 40 8 8 161 122 200 149 19
13 37 26 40 30 3 4 28 23 56 43 88 62 232 127 318 143 43 8 81 17 84 20 12 12
43 3 63 -17z m-814 -185 c-2 -22 -9 -29 -34 -34 -17 -3 -43 -18 -56 -33 -16
-18 -28 -23 -32 -16 -4 6 -13 9 -21 6 -28 -11 -13 12 30 48 24 20 51 36 60 36
9 0 16 5 16 10 0 6 9 10 19 10 15 0 19 -6 18 -27z m1005 -38 c12 -42 0 -125
-18 -125 -8 0 -14 5 -14 11 0 6 -6 9 -13 6 -18 -7 -20 43 -4 101 13 50 36 53
49 7z m-3853 -11 c15 -34 14 -59 -5 -96 -12 -24 -18 -28 -25 -17 -5 8 -9 24
-9 36 0 12 -5 23 -11 25 -7 2 -7 12 0 30 6 16 7 30 1 33 -13 8 -27 -23 -35
-77 -4 -28 -13 -49 -22 -53 -21 -7 -21 -7 -27 45 -3 25 -3 37 0 27 5 -15 10
-11 26 20 11 21 26 43 34 49 21 17 60 5 73 -22z m3904 6 c9 -11 17 -24 17 -29
0 -5 5 -11 10 -13 6 -2 13 -27 15 -56 l5 -52 -24 15 c-25 17 -36 42 -36 88 0
16 -5 37 -10 48 -14 25 1 25 23 -1z m-3878 -159 c3 -11 15 -23 26 -26 10 -4
19 -11 19 -17 0 -5 19 -31 42 -56 164 -181 286 -275 488 -378 l115 -59 170 -3
c154 -3 175 -2 223 17 55 22 97 28 87 12 -3 -5 0 -11 7 -14 7 -2 0 -2 -17 0
-28 4 -29 3 -12 -11 18 -14 18 -16 1 -38 -25 -33 -81 -68 -109 -68 -37 0 -39
-18 -5 -32 l32 -13 -23 -20 c-12 -11 -19 -15 -16 -8 11 18 -8 24 -42 12 -20
-7 -30 -17 -29 -27 2 -13 -5 -16 -36 -13 -22 1 -45 9 -53 17 -9 8 -25 11 -42
8 -27 -6 -30 -3 -43 37 -12 35 -19 44 -37 42 -11 -2 -21 2 -21 7 0 6 -9 10
-20 10 -11 0 -20 3 -20 8 0 14 -42 34 -89 41 -37 6 -50 4 -64 -10 -10 -9 -15
-19 -10 -22 70 -42 85 -47 101 -35 13 11 15 10 9 -4 -3 -10 -1 -22 6 -28 67
-57 140 -108 177 -124 25 -11 69 -30 98 -43 29 -13 61 -23 72 -23 28 0 148
-47 166 -65 9 -8 22 -15 29 -15 8 0 48 -18 90 -41 60 -32 90 -41 145 -46 74
-6 89 3 45 27 -14 7 -25 17 -25 20 0 10 -73 87 -86 91 -6 2 -24 14 -40 26 -16
13 -50 39 -76 58 -35 26 -49 44 -54 70 -4 24 -12 35 -23 35 -23 0 -31 9 -24
26 6 15 33 19 33 5 0 -5 8 -11 18 -14 32 -7 122 72 224 198 31 39 77 88 103
110 25 22 69 61 96 88 28 26 56 47 64 47 7 0 15 6 18 13 3 9 31 16 76 21 39 3
91 12 116 18 41 11 46 10 59 -7 8 -11 17 -17 21 -13 10 9 128 -79 197 -146 31
-31 62 -56 68 -56 6 0 58 -47 116 -105 62 -62 113 -105 125 -105 10 0 19 -6
19 -12 1 -23 29 -51 52 -53 15 -1 22 -8 22 -19 -2 -20 16 -21 42 -2 10 8 29
12 42 9 13 -3 22 -1 22 6 0 6 8 11 18 12 17 1 -74 49 -94 49 -7 0 -8 18 -4 53
5 34 3 54 -4 59 -16 11 -26 10 -26 -2 0 -5 -5 -10 -11 -10 -8 0 -8 5 1 15 17
20 39 19 100 -5 62 -24 217 -27 356 -6 108 17 187 53 351 163 109 73 242 199
351 331 36 44 48 52 77 52 28 0 35 -5 45 -32 35 -92 36 -143 5 -234 -15 -43
-31 -83 -36 -88 -5 -6 -9 -22 -9 -38 0 -34 -30 -100 -44 -95 -6 2 -14 18 -19
36 -7 28 -11 32 -32 27 -13 -3 -44 -20 -69 -36 -24 -17 -47 -30 -51 -30 -5 0
-44 -23 -88 -51 -43 -28 -103 -62 -133 -76 -29 -13 -56 -29 -59 -34 -4 -5 -10
-7 -15 -4 -4 3 -13 -2 -20 -10 -6 -7 -18 -11 -26 -8 -11 4 -12 9 -3 19 20 24
5 36 -18 14 -12 -11 -25 -20 -29 -20 -9 0 -61 -24 -191 -86 -62 -30 -117 -54
-122 -54 -6 0 -11 -4 -11 -10 0 -5 16 -10 35 -10 41 0 46 -16 10 -32 -14 -6
-25 -14 -25 -18 0 -4 -13 -13 -30 -20 -16 -7 -30 -15 -30 -19 0 -3 -17 -17
-38 -31 -20 -14 -44 -33 -53 -42 -9 -10 -20 -18 -25 -18 -4 0 -64 -29 -133
-64 -154 -77 -222 -102 -326 -117 -127 -18 -127 -18 -132 15 -2 16 -10 38 -18
49 -13 19 -13 19 -24 -1 -7 -14 -8 -29 -2 -45 11 -28 -8 -65 -26 -54 -6 4 -93
9 -194 11 -101 3 -213 10 -249 15 -36 6 -96 11 -134 11 -57 0 -80 6 -140 34
-121 58 -206 96 -215 96 -5 0 -16 11 -25 25 -9 14 -21 25 -27 25 -18 0 -36 25
-44 58 -6 31 -7 32 -35 17 -37 -19 -34 -20 -69 13 -48 44 -55 48 -86 56 -37 9
-204 92 -225 111 -9 8 -20 15 -24 15 -11 0 -218 119 -239 138 -21 18 -37 28
-144 80 -70 35 -86 39 -118 32 -20 -5 -45 -16 -55 -25 -20 -18 -18 -21 -49
115 -4 19 -20 69 -34 112 -29 83 -30 144 -3 163 9 7 16 20 16 29 0 9 6 16 13
16 9 0 8 3 -2 9 -11 7 -10 11 7 20 13 7 19 17 16 26 -4 8 -1 15 4 15 6 0 13
-9 17 -19z m2595 -681 c0 -5 -4 -10 -9 -10 -6 0 -13 5 -16 10 -3 6 1 10 9 10
9 0 16 -4 16 -10z m530 -50 c0 -5 -5 -10 -11 -10 -5 0 -7 5 -4 10 3 6 8 10 11
10 2 0 4 -4 4 -10z m-2296 -511 c30 -89 33 -145 10 -177 -18 -27 -36 -28 -56
-4 -15 17 -22 36 -52 142 -30 110 -31 129 -5 156 l24 25 26 -32 c14 -18 38
-68 53 -110z m2202 43 c-4 -30 -13 -67 -22 -84 -14 -28 -22 -58 -23 -98 -1 -9
-13 -35 -28 -58 l-27 -41 -23 34 c-18 26 -23 48 -23 95 0 33 4 68 9 78 5 9 19
39 32 65 12 27 33 62 46 78 l25 30 20 -23 c17 -19 19 -32 14 -76z m2594 48
c23 -20 17 -26 -14 -14 -9 3 -16 12 -16 20 0 18 3 18 30 -6z m-4455 -110 c3
-5 15 -10 26 -10 21 0 75 -76 86 -120 3 -14 13 -33 22 -44 14 -15 15 -42 13
-179 -4 -154 -7 -174 -36 -224 l-13 -23 -11 25 c-6 14 -16 25 -22 25 -14 0
-33 41 -73 156 -56 160 -76 346 -42 384 20 22 40 26 50 10z m1444 0 c4 0 12
-15 19 -34 9 -25 10 -50 1 -102 -6 -38 -10 -84 -9 -101 0 -18 -18 -88 -41
-155 -46 -137 -52 -151 -86 -191 -13 -16 -20 -34 -16 -40 3 -7 -3 -4 -14 6
-28 24 -33 54 -39 245 l-6 163 32 67 c18 37 42 79 52 94 21 31 66 58 86 52 8
-2 17 -4 21 -4z m-1925 -43 c7 -18 21 -67 31 -110 16 -67 16 -80 4 -88 -19
-12 -29 -7 -51 22 -24 32 -53 148 -45 179 10 39 45 37 61 -3z m2428 9 c17 -24
-22 -150 -57 -189 -21 -22 -30 -25 -45 -17 -18 10 -18 12 1 83 31 115 48 149
73 141 12 -4 24 -12 28 -18z m1729 7 c33 -17 33 -17 10 -23 -28 -6 -41 -30
-17 -30 9 0 16 5 16 10 0 6 7 10 15 10 10 0 15 -10 15 -30 0 -21 5 -30 16 -30
12 0 15 -6 9 -22 -3 -13 -8 -30 -9 -38 -5 -30 -46 -95 -71 -113 -17 -13 -35
-17 -51 -13 -16 4 -23 3 -19 -3 3 -6 1 -20 -5 -31 -9 -17 -17 -20 -44 -14 -20
3 -43 1 -56 -6 -15 -8 -25 -9 -29 -2 -3 6 -22 9 -41 7 -19 -1 -39 1 -45 5 -5
4 -19 10 -30 13 -18 4 -18 5 3 6 12 0 22 6 22 11 0 6 -10 15 -22 21 -21 8 -20
9 5 4 16 -3 27 -2 25 2 -2 4 -10 21 -18 36 -12 25 -12 30 0 37 8 6 11 10 6 10
-5 0 8 15 28 34 20 19 36 39 36 45 0 6 5 11 10 11 6 0 21 11 34 25 13 14 37
28 53 31 33 6 30 12 50 -106 2 -13 6 -26 8 -28 1 -2 11 32 20 75 16 70 30 113
39 113 2 0 18 -8 37 -17z m-3887 -25 c3 -13 6 -32 6 -44 0 -27 76 -258 134
-409 51 -131 50 -129 37 -121 -5 4 -11 1 -13 -5 -2 -7 -17 -3 -41 11 -20 12
-37 19 -37 15 0 -14 -27 22 -59 78 -99 173 -127 342 -77 462 17 40 41 46 50
13z m1871 -2 c9 -13 22 -52 30 -87 7 -35 14 -55 14 -45 1 11 4 17 7 14 5 -6
-15 -76 -35 -123 -5 -11 -16 -47 -26 -80 -43 -151 -90 -226 -168 -273 -40 -23
-77 -29 -77 -12 0 5 11 33 24 62 92 199 151 368 190 541 8 33 21 34 41 3z
m-3856 -23 c15 -16 55 -59 88 -98 81 -93 144 -211 87 -165 -9 8 -18 10 -22 4
-4 -5 -20 -9 -37 -10 -16 0 -42 -4 -56 -8 -19 -5 -31 -3 -44 10 -10 10 -24 19
-32 20 -8 2 -16 4 -17 6 -2 2 -15 20 -30 40 -15 20 -25 41 -22 47 3 5 -1 12
-10 15 -8 3 -12 11 -8 17 3 6 1 21 -6 34 -10 19 -10 27 4 46 9 13 16 33 17 44
0 18 1 18 10 -4 8 -19 12 -21 24 -11 8 7 15 19 15 26 0 20 8 17 39 -13z m2675
-99 c24 -47 33 -175 17 -239 -6 -26 -22 -64 -36 -85 -13 -21 -21 -40 -19 -43
3 -3 1 -14 -5 -24 -6 -10 -11 -13 -11 -6 0 7 -16 28 -35 47 -19 20 -35 44 -35
54 0 11 -9 41 -21 67 -11 26 -23 79 -26 119 -6 82 6 117 58 160 l31 27 32 -20
c17 -10 40 -36 50 -57z m539 44 c7 -7 18 -24 24 -38 l12 -25 1 25 1 25 19 -24
c24 -28 25 -76 6 -176 -20 -101 -33 -146 -45 -158 -6 -6 -11 -23 -11 -38 0
-16 -11 -40 -25 -55 -14 -15 -25 -22 -25 -15 0 6 -7 11 -15 11 -9 0 -15 9 -15
24 0 13 -11 66 -25 118 -28 105 -29 159 -7 238 18 63 35 87 66 93 11 2 22 5
24 6 2 0 9 -5 15 -11z m3042 -289 c-4 -5 0 -9 7 -9 30 -1 77 -60 48 -60 -5 0
-10 -4 -10 -10 0 -5 11 -10 25 -10 26 0 32 -9 15 -26 -19 -19 0 -44 34 -44 68
0 74 -44 12 -91 -24 -19 -50 -46 -58 -60 -9 -14 -30 -32 -47 -40 -17 -8 -31
-19 -31 -24 0 -6 -9 -19 -21 -28 -19 -17 -23 -17 -44 -3 -13 9 -39 14 -59 12
-28 -2 -39 3 -51 20 -8 13 -15 32 -15 44 0 11 -5 20 -10 20 -6 0 -15 11 -21
24 -6 13 -20 27 -31 30 -18 4 -19 10 -13 43 4 21 11 43 15 48 5 6 11 22 13 35
9 58 37 94 97 126 59 32 164 35 145 3z m-6562 -7 c61 -41 91 -102 50 -102 -13
0 -15 -2 -5 -8 9 -6 0 -12 -26 -20 -54 -16 -72 -15 -72 6 -1 25 -30 57 -67 72
l-33 12 23 17 c64 46 87 50 130 23z m2803 -151 c8 -31 30 -105 49 -166 72
-239 74 -257 32 -269 -44 -12 -55 -5 -90 52 -74 121 -89 204 -62 347 9 49 19
93 21 97 12 19 36 -10 50 -61z m866 -12 c37 -147 20 -248 -67 -383 -27 -42
-33 -46 -60 -40 -36 8 -55 22 -55 40 0 16 50 194 60 214 5 9 20 60 35 115 39
148 59 161 87 54z m2138 -79 c0 -5 7 -10 15 -10 8 0 15 -4 15 -8 0 -4 14 -16
31 -26 l30 -18 -3 -84 c-2 -46 -6 -84 -9 -84 -12 0 -17 -39 -5 -43 6 -2 3 -3
-6 -2 -18 3 -48 -43 -48 -72 0 -8 -5 -11 -10 -8 -6 4 -9 3 -8 -2 1 -4 -1 -18
-5 -30 -5 -13 -2 -36 7 -57 12 -29 12 -35 0 -40 -7 -3 -27 6 -43 20 l-30 25
-52 -26 c-29 -15 -71 -27 -95 -28 -24 -1 -46 -7 -48 -13 -2 -6 20 -32 50 -59
48 -44 58 -49 96 -48 24 1 33 -1 21 -3 -12 -3 -29 -16 -38 -30 -9 -14 -20 -22
-26 -18 -6 3 -16 -2 -23 -12 -9 -12 -15 -14 -20 -6 -13 22 -32 12 -31 -15 0
-19 -6 -29 -19 -31 -14 -3 -17 0 -13 12 4 10 1 16 -9 16 -10 0 -14 -6 -10 -15
4 -10 -1 -15 -14 -15 -11 0 -20 -6 -20 -13 0 -20 -53 -38 -90 -31 -27 6 -36 3
-51 -17 -10 -13 -19 -19 -19 -14 0 6 -17 9 -40 7 -30 -3 -40 -1 -40 11 0 9
-13 17 -35 20 -39 6 -65 27 -65 51 0 9 -6 16 -12 16 -10 0 -10 2 0 8 7 5 10
16 6 25 -7 20 -50 23 -57 5 -3 -7 -6 7 -6 32 0 29 2 40 8 31 11 -17 25 3 17
25 -9 23 10 51 38 58 22 5 24 10 21 44 -4 29 -3 32 3 12 8 -23 9 -24 14 -5 4
11 9 34 13 50 3 19 22 45 50 68 24 21 47 47 50 58 4 12 12 18 21 15 8 -3 14 0
14 7 0 19 37 18 43 -1 3 -9 8 -25 12 -34 5 -13 2 -18 -9 -18 -23 0 -20 -15 7
-34 22 -15 22 -16 2 -32 -20 -16 -20 -16 -1 -27 11 -7 28 -20 38 -29 10 -10
22 -18 27 -18 5 0 11 -10 15 -22 5 -19 8 -21 16 -8 8 13 10 12 10 -2 0 -12 8
-18 23 -18 16 0 18 3 9 9 -8 4 -19 19 -25 31 -7 13 -20 27 -29 32 -10 4 -25
12 -34 16 -23 11 -29 78 -10 106 8 11 30 39 51 60 27 30 36 48 35 70 -3 50 -1
56 20 56 11 0 20 5 20 10 0 6 7 10 15 10 8 0 15 4 15 8 0 6 18 15 68 33 4 2
34 20 66 41 58 37 96 48 96 28z m-5064 -62 c23 -15 51 -28 63 -28 12 0 21 -5
21 -11 0 -6 7 -8 15 -5 10 4 20 -3 27 -19 12 -27 28 -33 29 -12 0 6 6 1 12
-13 6 -14 20 -31 30 -39 10 -7 32 -32 48 -55 17 -22 31 -39 32 -37 1 2 12 -2
25 -10 13 -8 22 -24 22 -39 0 -14 13 -39 31 -57 27 -29 36 -33 84 -33 30 0 57
-5 61 -11 4 -8 -1 -9 -16 -4 -16 5 -20 4 -15 -5 4 -6 17 -9 30 -6 14 4 28 0
36 -11 12 -14 11 -15 -9 -9 -23 8 -32 -8 -9 -17 9 -4 8 -8 -3 -17 -12 -9 -8
-10 17 -5 l32 6 3 -48 c2 -31 7 -47 15 -46 7 2 15 -13 19 -33 7 -40 -7 -58
-38 -48 -15 5 -18 -1 -18 -41 l0 -47 -36 7 c-28 5 -39 2 -49 -12 -18 -25 -103
-25 -127 -1 -18 18 -44 22 -102 18 -17 -1 -26 2 -22 9 7 10 -27 51 -43 51 -4
0 -22 13 -39 30 -18 16 -38 30 -45 30 -8 0 -22 9 -32 20 -10 11 -22 17 -26 14
-5 -3 -9 0 -9 5 0 6 -11 11 -24 11 -14 0 -28 5 -31 10 -3 6 -14 10 -23 10 -23
0 -41 44 -48 120 -4 45 -17 88 -42 140 -29 60 -36 87 -37 136 0 66 15 97 43
87 15 -6 15 -5 3 10 -7 9 -10 18 -5 18 5 1 14 2 19 4 6 1 19 3 30 4 17 1 18 3
5 11 -11 7 -5 8 19 3 19 -3 54 -19 77 -35z m2498 -18 c34 -87 56 -243 40 -285
-4 -9 -25 -25 -47 -37 l-41 -20 -33 36 c-27 29 -33 44 -33 80 0 110 64 309 90
279 4 -4 15 -28 24 -53z m3491 -70 c10 -11 30 -20 45 -20 15 0 35 -9 45 -20
18 -20 17 -20 -11 -21 l-29 -1 35 -12 c23 -9 39 -10 48 -3 8 6 12 6 12 -1 0
-6 -5 -14 -10 -17 -6 -4 -7 -23 -4 -46 7 -44 -11 -74 -55 -90 -17 -7 -22 -15
-18 -29 3 -11 1 -20 -4 -20 -5 0 -9 14 -9 30 0 37 -20 47 -52 27 -13 -8 -44
-22 -69 -32 -25 -9 -57 -26 -70 -38 -84 -77 -123 -87 -134 -36 -6 24 -3 34 9
41 10 5 16 22 16 43 0 18 5 46 10 60 15 40 189 205 216 205 6 0 19 -9 29 -20z
m-1250 -50 c3 -5 1 -10 -4 -10 -6 0 -11 5 -11 10 0 6 2 10 4 10 3 0 8 -4 11
-10z m-5865 -60 c0 -11 7 -20 15 -20 8 0 15 -5 15 -11 0 -7 8 -18 18 -26 15
-13 14 -14 -17 -9 -18 3 -43 6 -55 7 -11 0 -15 3 -8 6 6 2 9 10 5 16 -10 16
-13 39 -7 49 10 16 34 8 34 -12z m3042 -143 c21 -18 62 -45 92 -61 29 -15 59
-39 65 -52 9 -20 16 -23 36 -18 22 5 25 3 25 -19 0 -22 -5 -27 -32 -31 -49 -6
-86 -2 -82 9 2 6 -14 21 -36 34 -89 55 -173 171 -124 171 11 0 36 -15 56 -33z
m4108 -7 c0 -16 -40 -51 -50 -45 -6 4 -10 17 -10 31 0 20 5 24 30 24 17 0 30
-4 30 -10z m-80 -10 c0 -5 -3 -10 -7 -10 -5 0 -19 -3 -33 -6 l-25 -6 25 15
c31 18 40 20 40 7z m-3049 -73 c-12 -12 -46 -5 -40 8 2 5 10 8 18 7 8 -2 10 1
5 10 -6 10 -3 9 10 -1 10 -9 13 -18 7 -24z m3 -28 c-12 -13 -20 -16 -22 -9 -3
7 2 16 9 21 25 16 32 9 13 -12z m-78 -24 c3 -20 4 -38 2 -41 -7 -7 -128 -26
-162 -26 -37 1 -42 7 -22 28 9 9 20 14 23 10 3 -3 12 -1 20 6 18 15 105 56
120 57 7 1 15 -15 19 -34z m1589 -204 c3 -6 -4 -15 -15 -21 -17 -9 -20 -8 -20
10 0 20 24 28 35 11z m-3825 -31 c0 -5 -4 -10 -10 -10 -5 0 -10 5 -10 10 0 6
5 10 10 10 6 0 10 -4 10 -10z m4486 -105 c-1 -14 -5 -28 -9 -31 -9 -10 -48 7
-41 18 4 6 10 5 15 -3 7 -11 9 -11 9 -1 0 10 19 40 27 42 1 0 0 -11 -1 -25z
m-43 -51 c32 -6 37 -10 37 -33 0 -15 -4 -31 -8 -36 -5 -6 -17 -36 -26 -67 -11
-35 -23 -58 -32 -58 -8 0 -14 -10 -14 -25 0 -15 -6 -25 -15 -25 -7 0 -19 -8
-24 -18 -6 -9 -11 -11 -11 -5 0 16 -52 43 -84 43 -14 0 -28 5 -31 11 -5 7 5 9
27 6 18 -2 25 -2 16 0 -10 2 -18 11 -18 19 0 8 -7 17 -16 21 -14 5 -15 8 -3
17 8 6 14 18 14 26 0 8 8 15 18 15 10 0 22 7 27 14 4 8 15 16 24 17 26 4 76
28 76 37 0 5 -15 7 -32 5 -20 -2 -32 -8 -30 -15 1 -7 -2 -13 -8 -13 -5 0 -10
7 -10 15 0 26 -18 16 -29 -15 -11 -33 -31 -41 -31 -12 1 58 83 92 183 76z
m-5130 -39 c-3 -8 0 -15 6 -15 6 0 11 8 11 18 1 16 1 16 14 0 7 -10 18 -18 23
-18 5 0 18 -9 28 -20 10 -11 23 -20 30 -20 7 0 20 -9 30 -20 10 -11 24 -20 30
-20 23 0 34 -24 21 -42 -10 -14 -19 -16 -45 -8 -20 5 -42 5 -57 -1 -40 -15
-49 -11 -68 29 -23 45 -46 129 -39 136 10 10 22 -4 16 -19z m4433 -8 c15 -31
15 -36 0 -63 l-17 -29 5 33 c5 30 4 33 -15 27 -18 -6 -20 -4 -14 14 4 14 1 23
-9 27 -25 9 -19 24 9 24 19 0 29 -9 41 -33z m-150 -122 c-13 -5 -31 -16 -40
-24 -29 -25 -38 2 -11 33 14 16 25 36 25 45 0 11 8 6 24 -14 l25 -30 -23 -10z
m-4136 -45 c0 -9 -62 -30 -71 -24 -16 10 16 33 44 31 15 0 27 -4 27 -7z"/>
<path d="M4210 6310 c0 -6 29 -10 66 -10 41 0 63 4 59 10 -3 6 -33 10 -66 10
-33 0 -59 -4 -59 -10z"/>
<path d="M4396 5693 c-4 -5 -24 -8 -44 -8 -21 0 -37 -5 -37 -12 0 -18 -14 -27
-43 -29 -94 -4 -90 -3 -85 -25 4 -15 11 -19 28 -15 14 4 28 0 35 -9 7 -8 23
-15 36 -15 17 0 22 -4 18 -15 -5 -13 12 -15 117 -16 68 0 148 -4 177 -8 29 -4
54 -5 57 -3 7 8 -18 27 -62 46 -23 10 -52 30 -65 43 -12 13 -45 35 -71 49 -56
27 -51 26 -61 17z m-99 -85 c-3 -8 -6 -5 -6 6 -1 11 2 17 5 13 3 -3 4 -12 1
-19z"/>
<path d="M3644 5682 c-5 -4 -19 -22 -32 -39 l-22 -33 27 -6 c16 -4 36 -14 46
-22 9 -8 17 -12 17 -9 0 4 16 -2 37 -13 38 -20 56 -17 96 18 13 12 15 17 5 24
-9 5 -4 8 13 8 23 0 26 -3 21 -25 -6 -31 6 -33 17 -2 11 29 -17 50 -55 41 -23
-6 -26 -4 -21 10 5 13 2 15 -18 10 -14 -3 -37 1 -57 11 -58 31 -65 33 -74 27z
m71 -72 c-12 -5 -14 -9 -6 -9 8 -1 12 -4 8 -7 -3 -3 -16 -2 -29 2 -22 7 -22 7
-3 15 28 11 56 10 30 -1z m52 -6 c-3 -3 -12 -4 -19 -1 -8 3 -5 6 6 6 11 1 17
-2 13 -5z m-7 -30 c0 -8 -4 -12 -10 -9 -5 3 -10 10 -10 16 0 5 5 9 10 9 6 0
10 -7 10 -16z"/>
<path d="M3930 5610 c8 -5 22 -9 30 -9 10 0 8 3 -5 9 -27 12 -43 12 -25 0z"/>
<path d="M3890 5589 c0 -5 5 -7 10 -4 6 3 10 8 10 11 0 2 -4 4 -10 4 -5 0 -10
-5 -10 -11z"/>
<path d="M5028 5428 c-3 -7 -15 -13 -29 -13 -13 0 -24 -6 -23 -12 1 -7 2 -24
3 -38 1 -23 31 -38 31 -15 0 5 16 12 36 16 26 5 40 2 52 -9 14 -15 18 -14 44
13 15 17 28 34 28 40 0 27 -134 43 -142 18z"/>
<path d="M4876 5273 c-3 -3 -6 -15 -6 -26 0 -14 -5 -18 -20 -14 -21 5 -45 -16
-36 -32 3 -5 0 -12 -6 -14 -7 -3 1 -6 19 -6 20 -1 37 -9 46 -21 13 -19 14 -19
15 11 0 20 11 42 27 59 17 18 23 30 16 34 -6 4 -11 5 -11 1 0 -3 -8 -1 -19 4
-10 6 -21 7 -25 4z"/>
<path d="M4605 4528 c-11 -11 -45 -44 -77 -73 -31 -30 -54 -56 -50 -59 3 -3 0
-6 -6 -6 -6 0 -20 -13 -32 -30 -12 -16 -18 -30 -15 -30 15 0 144 134 138 143
-3 6 -1 7 5 3 12 -7 52 27 52 44 0 6 5 10 10 10 6 0 10 5 10 10 0 15 -12 11
-35 -12z"/>
<path d="M4532 4508 c-13 -15 -21 -28 -18 -28 11 0 47 41 44 49 -2 4 -13 -5
-26 -21z"/>
<path d="M4389 4303 c-13 -16 -12 -17 4 -4 16 13 21 21 13 21 -2 0 -10 -8 -17
-17z"/>
<path d="M4238 4101 c-9 -20 -22 -58 -29 -86 -7 -27 -19 -66 -28 -85 -19 -44
-51 -163 -46 -169 3 -2 11 11 19 30 8 19 26 49 39 67 14 18 28 50 32 70 4 20
13 49 22 65 15 30 26 134 14 141 -3 2 -14 -13 -23 -33z"/>
<path d="M3918 3759 c-8 -38 -3 -73 15 -99 l16 -23 10 26 c8 20 5 35 -13 73
-21 43 -23 45 -28 23z"/>
<path d="M4127 3743 c-4 -3 -7 -15 -7 -25 0 -10 -6 -18 -14 -18 -8 0 -17 -7
-20 -16 -3 -8 -2 -12 4 -9 6 4 10 -7 10 -24 0 -17 5 -31 10 -31 6 0 10 12 10
28 0 15 4 43 10 61 10 35 9 46 -3 34z"/>
<path d="M5120 3629 c0 -5 5 -7 10 -4 6 3 10 8 10 11 0 2 -4 4 -10 4 -5 0 -10
-5 -10 -11z"/>
<path d="M3687 3574 c-12 -13 -8 -20 18 -32 35 -16 37 -15 33 11 -3 22 -36 36
-51 21z"/>
<path d="M5935 3150 c3 -5 8 -10 11 -10 2 0 4 5 4 10 0 6 -5 10 -11 10 -5 0
-7 -4 -4 -10z"/>
<path d="M5436 2573 c-6 -14 -5 -15 5 -6 7 7 10 15 7 18 -3 3 -9 -2 -12 -12z"/>
<path d="M4772 2313 c-55 -19 -48 -28 9 -12 24 7 47 12 52 11 4 -1 7 3 7 8 0
13 -16 12 -68 -7z"/>
<path d="M4690 2279 c0 -5 5 -7 10 -4 6 3 10 8 10 11 0 2 -4 4 -10 4 -5 0 -10
-5 -10 -11z"/>
<path d="M4248 2133 c6 -2 18 -2 25 0 6 3 1 5 -13 5 -14 0 -19 -2 -12 -5z"/>
<path d="M4156 2003 c-6 -14 -5 -15 5 -6 7 7 10 15 7 18 -3 3 -9 -2 -12 -12z"/>
<path d="M1042 1748 c6 -18 28 -21 28 -4 0 9 -7 16 -16 16 -9 0 -14 -5 -12
-12z"/>
<path d="M6000 570 c0 -5 5 -10 11 -10 5 0 7 5 4 10 -3 6 -8 10 -11 10 -2 0
-4 -4 -4 -10z"/>
<path d="M6240 469 c0 -5 5 -7 10 -4 6 3 10 8 10 11 0 2 -4 4 -10 4 -5 0 -10
-5 -10 -11z"/>
<path d="M1780 990 c0 -5 5 -10 10 -10 6 0 10 5 10 10 0 6 -4 10 -10 10 -5 0
-10 -4 -10 -10z"/>
<path d="M7490 1030 c-21 -22 -28 -36 -22 -42 14 -14 29 -3 48 34 22 42 11 46
-26 8z"/>
<path d="M7425 970 c-18 -8 -17 -9 8 -9 15 -1 27 4 27 9 0 12 -8 12 -35 0z"/>
<path d="M7355 901 c-3 -12 -11 -21 -16 -21 -5 0 -9 -4 -9 -10 0 -21 30 -9 36
15 8 32 -2 45 -11 16z"/>
<path d="M7616 882 c-3 -6 -1 -14 5 -17 15 -10 25 3 12 16 -7 7 -13 7 -17 1z"/>
<path d="M2288 103 c7 -3 16 -2 19 1 4 3 -2 6 -13 5 -11 0 -14 -3 -6 -6z"/>
</g>
</svg>
